<?xml version="1.0" encoding="UTF-8" standalone="no"?><!DOCTYPE svg PUBLIC "-//W3C//DTD SVG 1.1//EN" "http://www.w3.org/Graphics/SVG/1.1/DTD/svg11.dtd"><svg width="100%" height="100%" viewBox="0 0 2000 1000" version="1.1" xmlns="http://www.w3.org/2000/svg" xmlns:xlink="http://www.w3.org/1999/xlink" xml:space="preserve" xmlns:serif="http://www.serif.com/" style="fill-rule:evenodd;clip-rule:evenodd;stroke-linejoin:round;stroke-miterlimit:2;"><path d="M222.377,191.09c-56.833,0 -102.896,46.072 -102.896,102.896l0,412.028c-0,56.828 46.063,102.896 102.896,102.896l412.028,0c56.824,0 102.891,-46.067 102.891,-102.896l0,-412.028c0,-56.824 -46.067,-102.896 -102.891,-102.896l-412.028,0Z" style="fill:url(#_Linear1);fill-rule:nonzero;"/><path d="M885.556,265.478l0,205.088l100.472,0c23.111,0 40.727,-4.501 52.843,-13.504c12.121,-8.993 18.174,-22.084 18.174,-39.264c0,-12.374 -4.271,-22.938 -12.8,-31.678c-8.543,-8.74 -20.842,-15.159 -36.896,-19.252c14.113,-2.452 24.776,-7.54 31.987,-15.257c7.207,-7.727 10.812,-17.817 10.812,-30.299c0,-17.278 -6.396,-30.909 -19.177,-40.877c-12.782,-9.973 -30.266,-14.957 -52.458,-14.957l-92.955,0Zm55.834,25.465l16.106,0c11.759,0 20.453,2.476 26.074,7.436c5.627,4.961 8.435,12.711 8.435,23.242c0,11.347 -2.86,19.379 -8.585,24.082c-5.73,4.708 -15.548,7.052 -29.45,7.052l-12.58,0l0,-61.812Zm0,86.972l17.334,0c12.885,0 22.398,2.71 28.531,8.13c6.138,5.42 9.204,13.799 9.204,25.155c0,12.271 -3.146,20.992 -9.434,26.154c-6.288,5.162 -17.002,7.746 -32.137,7.746l-13.499,0l0,-67.186Z" style="fill:url(#_Linear2);fill-rule:nonzero;"/><path d="M1083.714,265.478l0,205.088l55.834,0l0,-179.623l14.577,0c15.131,0 26.276,3.141 33.436,9.434c7.16,6.288 10.742,15.979 10.742,29.066c0,12.378 -3.456,21.601 -10.362,27.687c-6.897,6.081 -17.456,9.124 -31.668,9.124l-12.889,0l50.006,104.312l64.269,0l-49.542,-88.201c15.848,-3.784 27.762,-10.203 35.738,-19.252c7.976,-9.054 11.966,-20.682 11.966,-34.899c0,-19.43 -7.338,-34.744 -22.009,-45.936c-14.676,-11.202 -34.899,-16.8 -60.668,-16.8l-89.429,0Z" style="fill:url(#_Linear3);fill-rule:nonzero;"/><path d="M1330.959,265.478l-70.402,205.088l29.146,0l20.401,-60.593l68.869,0l21.629,60.593l61.048,0l-75.161,-205.088l-55.529,0Zm12.121,44.947l26.534,73.469l-50.616,0l24.082,-73.469Z" style="fill:url(#_Linear4);fill-rule:nonzero;"/><path d="M1608.887,265.478l0,104.916l-67.955,-104.916l-63.046,0l0,205.088l30.374,0l0,-149.868l98.015,149.868l33.445,0l0,-205.088l-30.834,0Z" style="fill:url(#_Linear5);fill-rule:nonzero;"/><path d="M1682.032,265.478l0,205.088l93.874,0c13.391,0 25.92,-1.894 37.581,-5.683c11.656,-3.774 21.784,-9.204 30.374,-16.256c11.858,-10.02 20.935,-21.906 27.228,-35.658c6.288,-13.762 9.429,-28.611 9.429,-44.567c0,-16.669 -4.093,-32.409 -12.271,-47.244c-8.182,-14.826 -19.585,-27.097 -34.2,-36.812c-10.034,-6.752 -21.25,-11.581 -33.675,-14.498c-12.425,-2.912 -28.761,-4.37 -49.007,-4.37l-69.333,0Zm57.522,27.608l19.787,0c18.811,0 33.412,6.522 43.789,19.562c10.381,13.035 15.576,31.523 15.576,55.45c0,23.932 -5.167,42.391 -15.496,55.375c-10.329,12.988 -24.954,19.482 -43.868,19.482l-19.787,0l0,-149.868Z" style="fill:url(#_Linear6);fill-rule:nonzero;"/><path d="M533.231,497.098c46.789,-16.129 80.389,-60.514 80.389,-112.756c0,-30.965 -11.802,-59.14 -31.157,-80.333l-125.678,193.525l-23.988,36.966l-22.506,34.636c0,0.028 0,0.052 -0.028,0.08l-19.496,30.013c-8.787,13.687 -13.879,30.008 -13.879,47.502c0,48.684 39.452,88.168 88.135,88.168l55.117,0c65.854,0 119.245,-53.391 119.245,-119.274c0,-61.414 -46.466,-112.011 -106.154,-118.528m26.806,-212.281l-173.406,150.731l-36.249,31.542l-4.271,3.695c-13.583,10.953 -30.857,17.522 -49.64,17.522c-43.676,0 -79.077,-35.4 -79.077,-79.072l0,-144.134l276.958,0c24.283,0 46.846,7.254 65.685,19.716" style="fill:#fff;fill-rule:nonzero;"/><path d="M925.448,529.687c-23.444,0 -42.448,19.008 -42.448,42.452l0,118.898c0,23.444 19.004,42.452 42.448,42.452l739.315,0l80.624,65.695l0,-65.695l88.037,0c23.449,0 42.452,-19.008 42.452,-42.452l0,-118.898c0,-23.444 -19.004,-42.452 -42.452,-42.452l-907.976,0Z" style="fill:url(#_Linear7);fill-rule:nonzero;"/><rect x="798.799" y="191.095" width="18.479" height="617.814" style="fill:url(#_Linear8);"/><text x="932.764px" y="679.538px" style="font-family:'ArialMT', 'Arial', sans-serif;font-size:164.108px;fill:#fff;">C<tspan x="1040.22px 1147.676px 1246.077px 1353.533px 1451.935px 1499.92px 1598.322px 1705.778px " y="679.538px 679.538px 679.538px 679.538px 679.538px 679.538px 679.538px 679.538px ">HECK PRO</tspan></text><defs><linearGradient id="_Linear1" x1="0" y1="0" x2="1" y2="0" gradientUnits="userSpaceOnUse" gradientTransform="matrix(516.364506,-594.009444,594.009444,516.364506,170.207685,797.004573)"><stop offset="0" style="stop-color:#1685bd;stop-opacity:1"/><stop offset="0.16" style="stop-color:#1685bd;stop-opacity:1"/><stop offset="0.95" style="stop-color:#0f74c7;stop-opacity:1"/><stop offset="1" style="stop-color:#0f74c7;stop-opacity:1"/></linearGradient><linearGradient id="_Linear2" x1="0" y1="0" x2="1" y2="0" gradientUnits="userSpaceOnUse" gradientTransform="matrix(171.491318,0,0,171.491318,885.555057,368.019571)"><stop offset="0" style="stop-color:#1685bd;stop-opacity:1"/><stop offset="0.16" style="stop-color:#1685bd;stop-opacity:1"/><stop offset="0.95" style="stop-color:#0f74c7;stop-opacity:1"/><stop offset="1" style="stop-color:#0f74c7;stop-opacity:1"/></linearGradient><linearGradient id="_Linear3" x1="0" y1="0" x2="1" y2="0" gradientUnits="userSpaceOnUse" gradientTransform="matrix(173.947899,0,0,173.947899,1083.7139,368.019571)"><stop offset="0" style="stop-color:#1685bd;stop-opacity:1"/><stop offset="0.16" style="stop-color:#1685bd;stop-opacity:1"/><stop offset="0.95" style="stop-color:#0f74c7;stop-opacity:1"/><stop offset="1" style="stop-color:#0f74c7;stop-opacity:1"/></linearGradient><linearGradient id="_Linear4" x1="0" y1="0" x2="1" y2="0" gradientUnits="userSpaceOnUse" gradientTransform="matrix(201.096208,0,0,201.096208,1260.555665,368.019571)"><stop offset="0" style="stop-color:#1685bd;stop-opacity:1"/><stop offset="0.16" style="stop-color:#1685bd;stop-opacity:1"/><stop offset="0.95" style="stop-color:#0f74c7;stop-opacity:1"/><stop offset="1" style="stop-color:#0f74c7;stop-opacity:1"/></linearGradient><linearGradient id="_Linear5" x1="0" y1="0" x2="1" y2="0" gradientUnits="userSpaceOnUse" gradientTransform="matrix(161.836704,0,0,161.836704,1477.88408,368.019571)"><stop offset="0" style="stop-color:#1685bd;stop-opacity:1"/><stop offset="0.16" style="stop-color:#1685bd;stop-opacity:1"/><stop offset="0.95" style="stop-color:#0f74c7;stop-opacity:1"/><stop offset="1" style="stop-color:#0f74c7;stop-opacity:1"/></linearGradient><linearGradient id="_Linear6" x1="0" y1="0" x2="1" y2="0" gradientUnits="userSpaceOnUse" gradientTransform="matrix(198.490867,0,0,198.490867,1682.029837,368.019571)"><stop offset="0" style="stop-color:#1685bd;stop-opacity:1"/><stop offset="0.16" style="stop-color:#1685bd;stop-opacity:1"/><stop offset="0.95" style="stop-color:#0f74c7;stop-opacity:1"/><stop offset="1" style="stop-color:#0f74c7;stop-opacity:1"/></linearGradient><linearGradient id="_Linear7" x1="0" y1="0" x2="1" y2="0" gradientUnits="userSpaceOnUse" gradientTransform="matrix(992.882192,0,0,992.882192,882.996882,664.436209)"><stop offset="0" style="stop-color:#1685bd;stop-opacity:1"/><stop offset="0.16" style="stop-color:#1685bd;stop-opacity:1"/><stop offset="0.95" style="stop-color:#0f74c7;stop-opacity:1"/><stop offset="1" style="stop-color:#0f74c7;stop-opacity:1"/></linearGradient><linearGradient id="_Linear8" x1="0" y1="0" x2="1" y2="0" gradientUnits="userSpaceOnUse" gradientTransform="matrix(18.47937,0,0,18.47937,798.800609,499.999833)"><stop offset="0" style="stop-color:#1685bd;stop-opacity:1"/><stop offset="0.16" style="stop-color:#1685bd;stop-opacity:1"/><stop offset="0.95" style="stop-color:#0f74c7;stop-opacity:1"/><stop offset="1" style="stop-color:#0f74c7;stop-opacity:1"/></linearGradient></defs></svg>