<?xml version="1.0" encoding="utf-8"?>
<!-- Generator: Adobe Illustrator 24.3.0, SVG Export Plug-In . SVG Version: 6.00 Build 0)  -->
<svg version="1.1" id="Layer_1" xmlns="http://www.w3.org/2000/svg" xmlns:xlink="http://www.w3.org/1999/xlink" x="0px" y="0px"
	 viewBox="0 0 720 360" style="enable-background:new 0 0 720 360;" xml:space="preserve">
<style type="text/css">
	.st0{fill:#1C1C1C;}
</style>
<g>
	<g>
		<path class="st0" d="M325.12,173.61v-43.74h19.83c4.73,0,8.46,1.06,11.19,3.19c2.73,2.13,4.09,5.03,4.09,8.72
			c0,2.66-0.77,4.82-2.31,6.46c-1.54,1.65-3.81,2.73-6.82,3.25c3.42,0.87,6.05,2.24,7.87,4.11c1.82,1.87,2.73,4.12,2.73,6.76
			c0,3.66-1.29,6.46-3.88,8.38c-2.58,1.92-6.34,2.88-11.27,2.88H325.12z M337.03,135.31v13.18h2.68c2.97,0,5.06-0.5,6.28-1.5
			c1.22-1,1.83-2.72,1.83-5.14c0-2.25-0.6-3.9-1.8-4.96c-1.2-1.06-3.05-1.59-5.56-1.59H337.03z M337.03,153.85v14.33h2.88
			c3.23,0,5.51-0.55,6.85-1.65c1.34-1.1,2.01-2.96,2.01-5.58c0-2.42-0.65-4.21-1.96-5.37s-3.34-1.73-6.08-1.73H337.03z"/>
		<path class="st0" d="M367.38,173.61v-43.74h19.07c5.5,0,9.81,1.19,12.94,3.58c3.13,2.39,4.69,5.65,4.69,9.8
			c0,3.03-0.85,5.51-2.55,7.44c-1.7,1.93-4.24,3.3-7.62,4.11l10.57,18.81h-13.71l-10.67-22.25h2.75c3.03,0,5.28-0.65,6.76-1.95
			c1.47-1.3,2.21-3.27,2.21-5.91c0-2.79-0.76-4.86-2.29-6.2c-1.53-1.34-3.9-2.01-7.13-2.01h-3.11v38.31H367.38z"/>
		<path class="st0" d="M405.1,173.61l15.02-43.74h11.84l16.03,43.74h-13.02l-4.61-12.92h-14.69l-4.35,12.92H405.1z M417.56,155.13
			h10.8l-5.66-15.67L417.56,155.13z"/>
		<path class="st0" d="M451.45,173.61v-43.74h13.45l14.49,22.38v-22.38h6.58v43.74h-7.13l-20.9-31.96v31.96H451.45z"/>
		<path class="st0" d="M494.99,173.61v-43.74h14.79c4.32,0,7.8,0.31,10.45,0.93c2.65,0.62,5.04,1.65,7.18,3.09
			c3.12,2.07,5.55,4.69,7.29,7.85c1.74,3.16,2.62,6.52,2.62,10.08c0,3.4-0.67,6.57-2.01,9.5c-1.34,2.93-3.28,5.47-5.81,7.61
			c-1.83,1.5-3.99,2.66-6.48,3.47c-2.49,0.81-5.16,1.21-8.01,1.21H494.99z M507.26,135.76v31.96h4.22c4.03,0,7.15-1.38,9.36-4.15
			c2.2-2.77,3.3-6.71,3.3-11.81s-1.11-9.05-3.32-11.83c-2.21-2.78-5.33-4.17-9.34-4.17H507.26z"/>
	</g>
	<path class="st0" d="M271.56,114.01h-87.88c-12.12,0-21.94,9.82-21.94,21.94v87.88c0,12.12,9.82,21.94,21.94,21.94h87.88
		c12.12,0,21.94-9.82,21.94-21.94v-87.88C293.5,123.83,283.68,114.01,271.56,114.01z M210.07,173.66c-2.9,2.34-6.58,3.74-10.59,3.74
		c-9.31,0-16.86-7.55-16.86-16.86v-30.74h59.07c5.18,0,9.99,1.55,14.01,4.2l-36.98,32.15l-7.73,6.73L210.07,173.66z M247.19,229.99
		h-11.76c-10.38,0-18.8-8.42-18.8-18.8c0-3.73,1.09-7.21,2.96-10.13l4.16-6.4c0.01-0.01,0.01-0.01,0.01-0.02l4.8-7.39l5.12-7.88
		l26.8-41.27c4.13,4.52,6.65,10.53,6.65,17.13c0,11.14-7.17,20.61-17.15,24.05c12.73,1.39,22.64,12.18,22.64,25.28
		C272.62,218.6,261.23,229.99,247.19,229.99z"/>
	<g>
		<path class="st0" d="M513.17,197.71c-1.64,0-2.93,0.8-3.85,2.4c-0.93,1.6-1.39,3.83-1.39,6.69c0,2.86,0.47,5.09,1.4,6.7
			c0.93,1.61,2.21,2.41,3.84,2.41c1.64,0,2.93-0.8,3.86-2.41c0.93-1.61,1.4-3.84,1.4-6.7c0-2.86-0.46-5.09-1.39-6.69
			C516.12,198.51,514.83,197.71,513.17,197.71z"/>
		<path class="st0" d="M466.46,198.17h-1.3v7.89h1.44c1.53,0,2.65-0.29,3.38-0.87c0.73-0.58,1.09-1.48,1.09-2.7
			c0-1.29-0.42-2.33-1.27-3.13C468.95,198.57,467.83,198.17,466.46,198.17z"/>
	</g>
	<path class="st0" d="M527.28,186.22H333.63c-5,0-9.05,4.05-9.05,9.05v25.36c0,5,4.05,9.05,9.05,9.05H491.3l17.2,14.01v-14.01h18.78
		c5,0,9.05-4.05,9.05-9.05v-25.36C536.33,190.28,532.28,186.22,527.28,186.22z M480.01,195.33h9.96c2.87,0,5.12,0.62,6.76,1.87
		c1.63,1.25,2.45,2.95,2.45,5.12c0,1.58-0.44,2.88-1.33,3.89c-0.89,1.01-2.22,1.72-3.98,2.15l5.52,9.83h-7.16l-5.57-11.62h1.44
		c1.58,0,2.76-0.34,3.53-1.02c0.77-0.68,1.15-1.71,1.15-3.08c0-1.46-0.4-2.54-1.2-3.24c-0.8-0.7-2.04-1.05-3.72-1.05h-1.62v20.01
		h-6.22V195.33z M354.9,217.17c-1.77,1.05-3.87,1.57-6.28,1.57c-1.56,0-3.01-0.22-4.34-0.67s-2.53-1.1-3.59-1.97
		c-1.42-1.15-2.49-2.49-3.2-4.02c-0.71-1.53-1.07-3.23-1.07-5.1c0-3.55,1.16-6.47,3.48-8.74c2.32-2.27,5.3-3.41,8.95-3.41
		c2.1,0,3.92,0.42,5.48,1.26c1.56,0.84,2.9,2.13,4.04,3.89l-2.91,2.14c-0.7-1.48-1.54-2.59-2.55-3.33c-1-0.74-2.15-1.11-3.44-1.11
		c-1.97,0-3.5,0.79-4.58,2.38c-1.08,1.59-1.62,3.84-1.62,6.74c0,2.68,0.62,4.84,1.86,6.48c1.24,1.64,2.87,2.46,4.89,2.46
		c1.28,0,2.44-0.41,3.49-1.24c1.05-0.83,1.97-2.05,2.75-3.67l2.73,1.78C358.04,214.61,356.67,216.13,354.9,217.17z M381.43,218.18
		h-6.41v-10.01h-6.85v10.01h-6.41v-22.85h6.41v9.76h6.85v-9.76h6.41V218.18z M400.86,218.18h-14.73v-22.85h14.3v3.08h-7.9v6.65h7.49
		v3.08h-7.49v6.97h8.32V218.18z M421.73,217.17c-1.77,1.05-3.87,1.57-6.28,1.57c-1.56,0-3.01-0.22-4.34-0.67s-2.53-1.1-3.59-1.97
		c-1.42-1.15-2.49-2.49-3.2-4.02c-0.71-1.53-1.07-3.23-1.07-5.1c0-3.55,1.16-6.47,3.48-8.74c2.32-2.27,5.3-3.41,8.95-3.41
		c2.1,0,3.92,0.42,5.48,1.26c1.56,0.84,2.9,2.13,4.04,3.89l-2.91,2.14c-0.7-1.48-1.54-2.59-2.55-3.33c-1-0.74-2.15-1.11-3.43-1.11
		c-1.97,0-3.5,0.79-4.58,2.38c-1.08,1.59-1.62,3.84-1.62,6.74c0,2.68,0.62,4.84,1.86,6.48c1.24,1.64,2.87,2.46,4.89,2.46
		c1.28,0,2.44-0.41,3.49-1.24c1.05-0.83,1.96-2.05,2.75-3.67l2.73,1.78C424.87,214.61,423.5,216.13,421.73,217.17z M435,218.18
		h-6.41v-22.85H435V218.18z M441.46,218.18l-6.15-11.26l6.82-11.59h3.37l-4.94,8.36l7.98,14.49H441.46z M475.37,207.22
		c-1.29,1.12-3.04,1.68-5.24,1.68h-4.97v9.28h-6.22v-22.85h9.13c2.93,0,5.2,0.64,6.82,1.93c1.62,1.29,2.43,3.09,2.43,5.42
		C477.31,204.58,476.66,206.1,475.37,207.22z M524.34,211.82c-0.66,1.51-1.61,2.83-2.86,3.96c-1.06,0.95-2.31,1.68-3.75,2.2
		c-1.44,0.52-2.96,0.78-4.55,0.78c-1.58,0-3.1-0.26-4.55-0.79c-1.45-0.52-2.69-1.25-3.74-2.19c-1.28-1.15-2.24-2.48-2.88-4
		c-0.64-1.52-0.97-3.18-0.97-5.01c0-1.79,0.33-3.45,0.98-4.97c0.66-1.53,1.61-2.85,2.86-3.98c1.04-0.93,2.28-1.66,3.72-2.17
		c1.45-0.51,2.97-0.77,4.56-0.77c1.58,0,3.1,0.26,4.55,0.78c1.45,0.52,2.7,1.25,3.75,2.2c1.26,1.13,2.22,2.45,2.87,3.97
		c0.65,1.52,0.97,3.19,0.97,5.02C525.33,208.65,525,210.31,524.34,211.82z"/>
	<rect x="306.62" y="114.01" class="st0" width="3.94" height="131.76"/>
</g>
</svg>
