<?xml version="1.0" encoding="utf-8"?>
<!-- Generator: Adobe Illustrator 24.3.0, SVG Export Plug-In . SVG Version: 6.00 Build 0)  -->
<svg version="1.1" id="Layer_1" xmlns="http://www.w3.org/2000/svg" xmlns:xlink="http://www.w3.org/1999/xlink" x="0px" y="0px"
	 viewBox="0 0 720 360" style="enable-background:new 0 0 720 360;" xml:space="preserve">
<style type="text/css">
	.st0{fill:url(#SVGID_1_);}
	.st1{fill:url(#SVGID_2_);}
	.st2{fill:url(#SVGID_3_);}
	.st3{fill:url(#SVGID_4_);}
	.st4{fill:url(#SVGID_5_);}
	.st5{fill:url(#SVGID_6_);}
	.st6{fill:url(#SVGID_7_);}
	.st7{fill:url(#SVGID_8_);}
	.st8{fill:url(#SVGID_9_);}
	.st9{fill:url(#SVGID_10_);}
</style>
<g>
	<g>
		<linearGradient id="SVGID_1_" gradientUnits="userSpaceOnUse" x1="344.4812" y1="152.9697" x2="381.0559" y2="152.9697">
			<stop  offset="0.16" style="stop-color:#1685BD"/>
			<stop  offset="0.5917" style="stop-color:#137EC1"/>
			<stop  offset="0.9483" style="stop-color:#0F74C7"/>
		</linearGradient>
		<path class="st0" d="M344.48,174.84V131.1h19.83c4.73,0,8.46,1.06,11.19,3.19c2.73,2.13,4.09,5.03,4.09,8.72
			c0,2.66-0.77,4.82-2.31,6.46c-1.54,1.65-3.81,2.73-6.82,3.25c3.42,0.87,6.05,2.24,7.87,4.11c1.82,1.87,2.73,4.12,2.73,6.76
			c0,3.66-1.29,6.46-3.88,8.38c-2.58,1.92-6.34,2.88-11.27,2.88H344.48z M356.39,136.53v13.18h2.68c2.97,0,5.06-0.5,6.28-1.5
			c1.22-1,1.83-2.72,1.83-5.14c0-2.25-0.6-3.9-1.8-4.96c-1.2-1.06-3.05-1.59-5.56-1.59H356.39z M356.39,155.08v14.33h2.88
			c3.23,0,5.51-0.55,6.85-1.65c1.34-1.1,2.01-2.96,2.01-5.58c0-2.42-0.65-4.21-1.96-5.37s-3.34-1.73-6.08-1.73H356.39z"/>
		<linearGradient id="SVGID_2_" gradientUnits="userSpaceOnUse" x1="386.7434" y1="152.9697" x2="423.842" y2="152.9697">
			<stop  offset="0.16" style="stop-color:#1685BD"/>
			<stop  offset="0.5917" style="stop-color:#137EC1"/>
			<stop  offset="0.9483" style="stop-color:#0F74C7"/>
		</linearGradient>
		<path class="st1" d="M386.74,174.84V131.1h19.07c5.5,0,9.81,1.19,12.94,3.58c3.13,2.39,4.69,5.65,4.69,9.8
			c0,3.03-0.85,5.51-2.55,7.44c-1.7,1.93-4.24,3.3-7.62,4.11l10.57,18.81h-13.71l-10.67-22.25h2.75c3.03,0,5.28-0.65,6.75-1.95
			c1.47-1.3,2.21-3.27,2.21-5.91c0-2.79-0.76-4.86-2.29-6.2c-1.53-1.34-3.9-2.01-7.13-2.01h-3.11v38.31H386.74z"/>
		<linearGradient id="SVGID_3_" gradientUnits="userSpaceOnUse" x1="424.4592" y1="152.9697" x2="467.3479" y2="152.9697">
			<stop  offset="0.16" style="stop-color:#1685BD"/>
			<stop  offset="0.5917" style="stop-color:#137EC1"/>
			<stop  offset="0.9483" style="stop-color:#0F74C7"/>
		</linearGradient>
		<path class="st2" d="M424.46,174.84l15.02-43.74h11.84l16.03,43.74h-13.02l-4.61-12.92h-14.69l-4.35,12.92H424.46z M436.92,156.36
			h10.8l-5.66-15.67L436.92,156.36z"/>
		<linearGradient id="SVGID_4_" gradientUnits="userSpaceOnUse" x1="470.8098" y1="152.9697" x2="505.3254" y2="152.9697">
			<stop  offset="0.16" style="stop-color:#1685BD"/>
			<stop  offset="0.5917" style="stop-color:#137EC1"/>
			<stop  offset="0.9483" style="stop-color:#0F74C7"/>
		</linearGradient>
		<path class="st3" d="M470.81,174.84V131.1h13.45l14.49,22.38V131.1h6.58v43.74h-7.13l-20.9-31.96v31.96H470.81z"/>
		<linearGradient id="SVGID_5_" gradientUnits="userSpaceOnUse" x1="514.3488" y1="152.9697" x2="556.6819" y2="152.9697">
			<stop  offset="0.16" style="stop-color:#1685BD"/>
			<stop  offset="0.5917" style="stop-color:#137EC1"/>
			<stop  offset="0.9483" style="stop-color:#0F74C7"/>
		</linearGradient>
		<path class="st4" d="M514.35,174.84V131.1h14.79c4.32,0,7.8,0.31,10.45,0.93c2.65,0.62,5.04,1.65,7.18,3.09
			c3.12,2.07,5.55,4.69,7.29,7.85c1.74,3.16,2.62,6.52,2.62,10.08c0,3.4-0.67,6.57-2.01,9.5c-1.34,2.93-3.28,5.47-5.81,7.61
			c-1.83,1.5-3.99,2.66-6.48,3.47c-2.49,0.81-5.16,1.21-8.01,1.21H514.35z M526.62,136.99v31.96h4.22c4.03,0,7.15-1.38,9.36-4.15
			c2.2-2.77,3.3-6.71,3.3-11.81s-1.11-9.05-3.32-11.83c-2.21-2.78-5.33-4.17-9.34-4.17H526.62z"/>
	</g>
	<linearGradient id="SVGID_6_" gradientUnits="userSpaceOnUse" x1="191.9159" y1="244.4612" x2="302.0432" y2="117.7741">
		<stop  offset="0.16" style="stop-color:#1685BD"/>
		<stop  offset="0.5917" style="stop-color:#137EC1"/>
		<stop  offset="0.9483" style="stop-color:#0F74C7"/>
	</linearGradient>
	<path class="st5" d="M290.92,115.24h-87.88c-12.12,0-21.94,9.82-21.94,21.94v87.88c0,12.12,9.82,21.94,21.94,21.94h87.88
		c12.12,0,21.94-9.82,21.94-21.94v-87.88C312.86,125.06,303.04,115.24,290.92,115.24z M229.43,174.89
		c-2.9,2.34-6.58,3.74-10.59,3.74c-9.31,0-16.86-7.55-16.86-16.86v-30.74h59.07c5.18,0,9.99,1.55,14.01,4.2l-36.98,32.15l-7.73,6.73
		L229.43,174.89z M266.55,231.22h-11.76c-10.38,0-18.8-8.42-18.8-18.8c0-3.73,1.09-7.21,2.96-10.13l4.16-6.4
		c0.01-0.01,0.01-0.01,0.01-0.02l4.8-7.39l5.12-7.88l26.8-41.27c4.13,4.52,6.65,10.53,6.65,17.13c0,11.14-7.17,20.61-17.15,24.05
		c12.73,1.39,22.64,12.18,22.64,25.28C291.98,219.83,280.59,231.22,266.55,231.22z"/>
	<g>
		<linearGradient id="SVGID_7_" gradientUnits="userSpaceOnUse" x1="527.29" y1="208.0347" x2="537.8008" y2="208.0347">
			<stop  offset="0.16" style="stop-color:#1685BD"/>
			<stop  offset="0.5917" style="stop-color:#137EC1"/>
			<stop  offset="0.9483" style="stop-color:#0F74C7"/>
		</linearGradient>
		<path class="st6" d="M532.54,198.93c-1.64,0-2.93,0.8-3.85,2.4c-0.93,1.6-1.39,3.83-1.39,6.69c0,2.86,0.47,5.09,1.4,6.7
			c0.93,1.61,2.21,2.41,3.84,2.41c1.64,0,2.93-0.8,3.86-2.41c0.93-1.61,1.4-3.84,1.4-6.7c0-2.86-0.46-5.09-1.39-6.69
			C535.48,199.74,534.19,198.93,532.54,198.93z"/>
		<linearGradient id="SVGID_8_" gradientUnits="userSpaceOnUse" x1="484.5195" y1="203.3438" x2="490.4326" y2="203.3438">
			<stop  offset="0.16" style="stop-color:#1685BD"/>
			<stop  offset="0.5917" style="stop-color:#137EC1"/>
			<stop  offset="0.9483" style="stop-color:#0F74C7"/>
		</linearGradient>
		<path class="st7" d="M485.82,199.4h-1.3v7.89h1.44c1.53,0,2.65-0.29,3.38-0.87c0.73-0.58,1.09-1.48,1.09-2.7
			c0-1.29-0.42-2.33-1.27-3.13C488.31,199.79,487.2,199.4,485.82,199.4z"/>
		<linearGradient id="SVGID_9_" gradientUnits="userSpaceOnUse" x1="343.9356" y1="216.1877" x2="555.692" y2="216.1877">
			<stop  offset="0.16" style="stop-color:#1685BD"/>
			<stop  offset="0.5917" style="stop-color:#137EC1"/>
			<stop  offset="0.9483" style="stop-color:#0F74C7"/>
		</linearGradient>
		<path class="st8" d="M546.64,187.45H352.99c-5,0-9.05,4.05-9.05,9.05v25.36c0,5,4.05,9.05,9.05,9.05h157.68l17.2,14.01v-14.01
			h18.78c5,0,9.05-4.05,9.05-9.05V196.5C555.69,191.5,551.64,187.45,546.64,187.45z M374.26,218.4c-1.77,1.05-3.87,1.57-6.28,1.57
			c-1.56,0-3.01-0.22-4.34-0.67s-2.53-1.1-3.59-1.97c-1.42-1.15-2.49-2.49-3.2-4.02c-0.71-1.53-1.07-3.23-1.07-5.1
			c0-3.55,1.16-6.47,3.48-8.74c2.32-2.27,5.3-3.41,8.95-3.41c2.1,0,3.92,0.42,5.48,1.26c1.56,0.84,2.9,2.13,4.04,3.89l-2.91,2.14
			c-0.7-1.48-1.54-2.59-2.55-3.33c-1-0.74-2.15-1.11-3.43-1.11c-1.97,0-3.5,0.79-4.58,2.38c-1.08,1.59-1.62,3.84-1.62,6.74
			c0,2.68,0.62,4.84,1.86,6.48c1.24,1.64,2.87,2.46,4.89,2.46c1.28,0,2.44-0.41,3.49-1.24c1.05-0.83,1.96-2.05,2.75-3.67l2.73,1.78
			C377.4,215.83,376.03,217.35,374.26,218.4z M400.79,219.41h-6.41v-10.01h-6.85v10.01h-6.41v-22.85h6.41v9.76h6.85v-9.76h6.41
			V219.41z M420.22,219.41h-14.73v-22.85h14.3v3.08h-7.9v6.65h7.49v3.08h-7.49v6.97h8.32V219.41z M441.09,218.4
			c-1.77,1.05-3.87,1.57-6.28,1.57c-1.56,0-3.01-0.22-4.34-0.67s-2.53-1.1-3.59-1.97c-1.42-1.15-2.49-2.49-3.2-4.02
			c-0.71-1.53-1.07-3.23-1.07-5.1c0-3.55,1.16-6.47,3.48-8.74c2.32-2.27,5.3-3.41,8.95-3.41c2.1,0,3.92,0.42,5.48,1.26
			c1.56,0.84,2.9,2.13,4.04,3.89l-2.91,2.14c-0.7-1.48-1.54-2.59-2.55-3.33c-1-0.74-2.15-1.11-3.44-1.11c-1.97,0-3.5,0.79-4.58,2.38
			c-1.08,1.59-1.62,3.84-1.62,6.74c0,2.68,0.62,4.84,1.86,6.48s2.87,2.46,4.89,2.46c1.28,0,2.44-0.41,3.49-1.24s1.97-2.05,2.75-3.67
			l2.73,1.78C444.23,215.83,442.86,217.35,441.09,218.4z M454.36,219.41h-6.41v-22.85h6.41V219.41z M460.82,219.41l-6.15-11.26
			l6.82-11.59h3.37l-4.94,8.36l7.98,14.49H460.82z M494.73,208.45c-1.29,1.12-3.04,1.68-5.24,1.68h-4.97v9.28h-6.22v-22.85h9.13
			c2.93,0,5.2,0.64,6.82,1.93c1.62,1.29,2.43,3.09,2.43,5.42C496.67,205.81,496.02,207.32,494.73,208.45z M511.59,219.41
			l-5.57-11.62h1.44c1.58,0,2.76-0.34,3.53-1.02c0.77-0.68,1.15-1.71,1.15-3.08c0-1.46-0.4-2.54-1.2-3.24
			c-0.8-0.7-2.04-1.05-3.72-1.05h-1.62v20.01h-6.22v-22.85h9.96c2.87,0,5.12,0.62,6.76,1.87c1.63,1.25,2.45,2.95,2.45,5.12
			c0,1.58-0.44,2.88-1.33,3.89c-0.89,1.01-2.22,1.72-3.98,2.15l5.52,9.83H511.59z M543.71,213.04c-0.66,1.51-1.61,2.83-2.86,3.96
			c-1.06,0.95-2.31,1.68-3.75,2.2c-1.44,0.52-2.96,0.78-4.55,0.78c-1.58,0-3.1-0.26-4.55-0.79c-1.45-0.52-2.69-1.25-3.74-2.19
			c-1.28-1.15-2.24-2.48-2.88-4c-0.64-1.52-0.97-3.18-0.97-5.01c0-1.79,0.33-3.45,0.98-4.97c0.66-1.53,1.61-2.85,2.86-3.98
			c1.04-0.93,2.28-1.66,3.72-2.17c1.45-0.51,2.97-0.77,4.56-0.77c1.58,0,3.1,0.26,4.55,0.78c1.45,0.52,2.7,1.25,3.75,2.2
			c1.26,1.13,2.22,2.45,2.87,3.97c0.65,1.52,0.97,3.19,0.97,5.02C544.69,209.87,544.36,211.53,543.71,213.04z"/>
	</g>
	<linearGradient id="SVGID_10_" gradientUnits="userSpaceOnUse" x1="325.9787" y1="181.1176" x2="329.9198" y2="181.1176">
		<stop  offset="0.16" style="stop-color:#1685BD"/>
		<stop  offset="0.5917" style="stop-color:#137EC1"/>
		<stop  offset="0.9483" style="stop-color:#0F74C7"/>
	</linearGradient>
	<rect x="325.98" y="115.24" class="st9" width="3.94" height="131.76"/>
</g>
</svg>
